<svg xmlns="http://www.w3.org/2000/svg">
  <g id='home'> 
    <path d="M20 17.0001V11.4522V11.4514C20 10.9176 20 10.6505 19.9351 10.402C19.8775 10.1816 19.7827 9.97269 19.6548 9.78426C19.5104 9.57164 19.3096 9.39575 18.9074 9.04389L14.1074 4.84389C13.3608 4.1906 12.9875 3.864 12.5674 3.73976C12.1972 3.63028 11.8028 3.63028 11.4326 3.73976C11.0127 3.86393 10.6398 4.19025 9.894 4.84281L9.89278 4.84389L5.09277 9.04389L5.09182 9.04473C4.69032 9.39603 4.48944 9.57181 4.34521 9.78427C4.2173 9.97269 4.12255 10.1816 4.06497 10.402C4 10.6506 4 10.9178 4 11.4522V17.0001C4 17.932 4 18.3978 4.15224 18.7654C4.35523 19.2554 4.74481 19.6448 5.23486 19.8478C5.60241 20 6.06835 20 7.00023 20C7.93211 20 8.39782 20 8.76537 19.8478C9.25542 19.6448 9.64467 19.2554 9.84766 18.7654C9.9999 18.3978 10 17.9319 10 17V16C10 14.8954 10.8954 14 12 14C13.1046 14 14 14.8954 14 16V17C14 17.9319 14 18.3978 14.1522 18.7654C14.3552 19.2554 14.7448 19.6448 15.2349 19.8478C15.6024 20 16.0683 20 17.0002 20C17.9321 20 18.3978 20 18.7654 19.8478C19.2554 19.6448 19.6447 19.2554 19.8477 18.7654C19.9999 18.3978 20 17.932 20 17.0001Z" stroke="currentColor" stroke-width="1.2" stroke-linecap="round" stroke-linejoin="round" fill='none'/>
  </g>

  <g id='team'>
    <path d="M29 32C29 30.3431 26.7614 29 24 29C21.2386 29 19 30.3431 19 32M33 28.9999C33 27.7697 31.7659 26.7124 30 26.2495M15 28.9999C15 27.7697 16.2341 26.7124 18 26.2495M30 22.2361C30.6137 21.6868 31 20.8885 31 20C31 18.3431 29.6569 17 28 17C27.2316 17 26.5308 17.2889 26 17.7639M18 22.2361C17.3863 21.6868 17 20.8885 17 20C17 18.3431 18.3431 17 20 17C20.7684 17 21.4692 17.2889 22 17.7639M24 26C22.3431 26 21 24.6569 21 23C21 21.3431 22.3431 20 24 20C25.6569 20 27 21.3431 27 23C27 24.6569 25.6569 26 24 26Z" stroke="currentColor" stroke-width="1.2" stroke-linecap="round" stroke-linejoin="round" fill='none' />
  </g>
  <g id='task'>
    <path d="M16 19.4C15.6686 19.4 15.4 19.6686 15.4 20C15.4 20.3314 15.6686 20.6 16 20.6V19.4ZM32 20.6C32.3314 20.6 32.6 20.3314 32.6 20C32.6 19.6686 32.3314 19.4 32 19.4V20.6ZM17.0918 31.782L17.3642 31.2474L17.0918 31.782ZM16.218 30.908L15.6834 31.1804H15.6834L16.218 30.908ZM31.7822 30.908L31.2476 30.6356L31.7822 30.908ZM30.9078 31.782L30.6354 31.2474L30.9078 31.782ZM30.9078 16.218L31.1802 15.6834L30.9078 16.218ZM31.7822 17.092L31.2476 17.3644V17.3644L31.7822 17.092ZM17.0918 16.218L17.3642 16.7526L17.0918 16.218ZM16.218 17.092L16.7526 17.3644L16.218 17.092ZM27.4243 24.4243C27.6586 24.1899 27.6586 23.8101 27.4243 23.5757C27.1899 23.3414 26.8101 23.3414 26.5757 23.5757L27.4243 24.4243ZM23 28L22.5757 28.4243C22.8101 28.6586 23.1899 28.6586 23.4243 28.4243L23 28ZM21.4243 25.5757C21.1899 25.3414 20.8101 25.3414 20.5757 25.5757C20.3414 25.8101 20.3414 26.1899 20.5757 26.4243L21.4243 25.5757ZM28.6 14C28.6 13.6686 28.3314 13.4 28 13.4C27.6686 13.4 27.4 13.6686 27.4 14H28.6ZM27.4 16C27.4 16.3314 27.6686 16.6 28 16.6C28.3314 16.6 28.6 16.3314 28.6 16H27.4ZM20.6 14C20.6 13.6686 20.3314 13.4 20 13.4C19.6686 13.4 19.4 13.6686 19.4 14H20.6ZM19.4 16C19.4 16.3314 19.6686 16.6 20 16.6C20.3314 16.6 20.6 16.3314 20.6 16H19.4ZM16 20.6H32V19.4H16V20.6ZM19.2002 16.6H28.8002V15.4H19.2002V16.6ZM31.4 19.2V28.8H32.6V19.2H31.4ZM28.8002 31.4H19.2002V32.6H28.8002V31.4ZM16.6 28.8V19.2H15.4V28.8H16.6ZM19.2002 31.4C18.6303 31.4 18.2388 31.3995 17.9352 31.3747C17.6387 31.3505 17.4794 31.3061 17.3642 31.2474L16.8194 32.3166C17.132 32.4759 17.4669 32.5405 17.8375 32.5707C18.2012 32.6005 18.65 32.6 19.2002 32.6V31.4ZM15.4 28.8C15.4 29.3501 15.3995 29.7988 15.4292 30.1625C15.4595 30.5331 15.5241 30.8678 15.6834 31.1804L16.7526 30.6356C16.6939 30.5204 16.6495 30.3612 16.6253 30.0647C16.6005 29.7613 16.6 29.3699 16.6 28.8H15.4ZM17.3642 31.2474C17.1009 31.1132 16.8869 30.8992 16.7526 30.6356L15.6834 31.1804C15.9326 31.6696 16.3301 32.0673 16.8194 32.3166L17.3642 31.2474ZM31.4 28.8C31.4 29.37 31.3996 29.7614 31.3748 30.0648C31.3507 30.3613 31.3063 30.5205 31.2476 30.6356L32.3168 31.1804C32.4761 30.8678 32.5407 30.5329 32.5709 30.1624C32.6005 29.7988 32.6 29.35 32.6 28.8H31.4ZM28.8002 32.6C29.3504 32.6 29.799 32.6005 30.1625 32.5707C30.533 32.5404 30.8676 32.4758 31.1802 32.3166L30.6354 31.2474C30.5201 31.3061 30.361 31.3505 30.0647 31.3747C29.7614 31.3995 29.3701 31.4 28.8002 31.4V32.6ZM31.2476 30.6356C31.1136 30.8988 30.8991 31.113 30.6354 31.2474L31.1802 32.3166C31.6691 32.0675 32.0674 31.67 32.3168 31.1804L31.2476 30.6356ZM28.8002 16.6C29.3702 16.6 29.7614 16.6005 30.0647 16.6253C30.361 16.6495 30.5201 16.6939 30.6354 16.7526L31.1802 15.6834C30.8676 15.5241 30.533 15.4595 30.1625 15.4292C29.799 15.3995 29.3503 15.4 28.8002 15.4V16.6ZM32.6 19.2C32.6 18.6499 32.6005 18.2012 32.5709 17.8376C32.5407 17.4671 32.4761 17.1323 32.3168 16.8196L31.2476 17.3644C31.3063 17.4796 31.3507 17.6388 31.3748 17.9352C31.3996 18.2386 31.4 18.6299 31.4 19.2H32.6ZM30.6354 16.7526C30.8991 16.8869 31.1135 17.1013 31.2476 17.3644L32.3168 16.8196C32.0674 16.3302 31.6692 15.9325 31.1802 15.6834L30.6354 16.7526ZM19.2002 15.4C18.65 15.4 18.2012 15.3995 17.8375 15.4292C17.4669 15.4595 17.132 15.5241 16.8194 15.6834L17.3642 16.7526C17.4794 16.6939 17.6387 16.6495 17.9352 16.6253C18.2388 16.6005 18.6302 16.6 19.2002 16.6V15.4ZM16.6 19.2C16.6 18.63 16.6005 18.2386 16.6253 17.9353C16.6495 17.6389 16.6939 17.4797 16.7526 17.3644L15.6834 16.8196C15.5241 17.1322 15.4595 17.4669 15.4292 17.8375C15.3995 18.2011 15.4 18.6498 15.4 19.2H16.6ZM16.8194 15.6834C16.33 15.9327 15.9326 16.3306 15.6834 16.8196L16.7526 17.3644C16.8869 17.1009 17.1009 16.8867 17.3642 16.7526L16.8194 15.6834ZM26.5757 23.5757L22.5757 27.5757L23.4243 28.4243L27.4243 24.4243L26.5757 23.5757ZM23.4243 27.5757L21.4243 25.5757L20.5757 26.4243L22.5757 28.4243L23.4243 27.5757ZM27.4 14V16H28.6V14H27.4ZM19.4 14V16H20.6V14H19.4Z" fill="currentColor"/>
  </g>

  <g id='share'>
    <path d="M21 25.5L27 28.5M27 19.5L21 22.5M30 33C28.3431 33 27 31.6569 27 30C27 28.3431 28.3431 27 30 27C31.6569 27 33 28.3431 33 30C33 31.6569 31.6569 33 30 33ZM18 27C16.3431 27 15 25.6569 15 24C15 22.3431 16.3431 21 18 21C19.6569 21 21 22.3431 21 24C21 25.6569 19.6569 27 18 27ZM30 21C28.3431 21 27 19.6569 27 18C27 16.3431 28.3431 15 30 15C31.6569 15 33 16.3431 33 18C33 19.6569 31.6569 21 30 21Z" stroke="currentColor" stroke-linecap="round" stroke-linejoin="round" fill='none'/>
  </g>
  <g id='doc'>
    <path d="M21 29H27M21 26H27M30.9996 21H26.5996C26.0396 21 25.7598 21 25.5459 20.891C25.3577 20.7951 25.2049 20.6422 25.109 20.454C25 20.2401 25 19.9601 25 19.4V15M31 29.8V21.654C31 21.1905 31.0002 20.9587 30.9502 20.7393C30.9059 20.5447 30.8328 20.3579 30.7332 20.185C30.6208 19.99 30.4632 19.82 30.1483 19.4799L26.9502 16.0259C26.6002 15.6479 26.425 15.4589 26.2168 15.3234C26.0322 15.2034 25.8286 15.1146 25.6151 15.0608C25.3743 15 25.1172 15 24.6021 15H20.2002C19.0801 15 18.5196 15 18.0918 15.218C17.7155 15.4097 17.4097 15.7157 17.218 16.092C17 16.5199 17 17.0799 17 18.2V29.8C17 30.9201 17 31.4801 17.218 31.908C17.4097 32.2843 17.7155 32.5902 18.0918 32.782C18.5196 33 19.0801 33 20.2002 33H27.8002C28.9203 33 29.48 33 29.9078 32.782C30.2841 32.5902 30.5905 32.2843 30.7822 31.908C31.0002 31.4801 31 30.9201 31 29.8Z" stroke="currentColor" stroke-width="1.2" stroke-linecap="round" stroke-linejoin="round" fill='none' />
  </g>
  <g id='note'>
    <path d="M16.218 17.092L16.6635 17.319L16.218 17.092ZM17.0918 16.218L17.3188 16.6635L17.0918 16.218ZM17.0918 31.782L17.3188 31.3365L17.0918 31.782ZM16.218 30.908L15.7725 31.135H15.7725L16.218 30.908ZM31.7822 30.908L31.3367 30.681L31.7822 30.908ZM30.9078 31.782L30.6808 31.3365L30.9078 31.782ZM31.7822 17.092L31.3367 17.319L31.7822 17.092ZM30.9078 16.218L31.1348 15.7725L30.9078 16.218ZM24 22.5C23.7239 22.5 23.5 22.7239 23.5 23C23.5 23.2761 23.7239 23.5 24 23.5V22.5ZM28 23.5C28.2761 23.5 28.5 23.2761 28.5 23C28.5 22.7239 28.2761 22.5 28 22.5V23.5ZM24 19.5C23.7239 19.5 23.5 19.7239 23.5 20C23.5 20.2761 23.7239 20.5 24 20.5V19.5ZM28 20.5C28.2761 20.5 28.5 20.2761 28.5 20C28.5 19.7239 28.2761 19.5 28 19.5V20.5ZM19.5 32C19.5 32.2761 19.7239 32.5 20 32.5C20.2761 32.5 20.5 32.2761 20.5 32H19.5ZM20.5 16C20.5 15.7239 20.2761 15.5 20 15.5C19.7239 15.5 19.5 15.7239 19.5 16L20.5 16ZM31.5 19.2V28.8H32.5V19.2H31.5ZM28.8002 31.5H19.2002V32.5H28.8002V31.5ZM16.5 28.8V19.2H15.5V28.8H16.5ZM19.2002 16.5H28.8002V15.5H19.2002V16.5ZM16.5 19.2C16.5 18.6317 16.5004 18.2356 16.5256 17.9271C16.5503 17.6246 16.5964 17.4507 16.6635 17.319L15.7725 16.865C15.6216 17.1612 15.5587 17.4813 15.5289 17.8457C15.4996 18.2043 15.5 18.6482 15.5 19.2H16.5ZM19.2002 15.5C18.6484 15.5 18.2044 15.4996 17.8457 15.5289C17.4812 15.5587 17.161 15.6216 16.8648 15.7725L17.3188 16.6635C17.4504 16.5964 17.6244 16.5503 17.9271 16.5256C18.2356 16.5004 18.6319 16.5 19.2002 16.5V15.5ZM16.6635 17.319C16.8074 17.0367 17.0367 16.8072 17.3188 16.6635L16.8648 15.7725C16.3943 16.0122 16.0121 16.3948 15.7725 16.865L16.6635 17.319ZM19.2002 31.5C18.6319 31.5 18.2356 31.4996 17.9271 31.4744C17.6244 31.4497 17.4504 31.4036 17.3188 31.3365L16.8648 32.2275C17.161 32.3784 17.4812 32.4413 17.8457 32.4711C18.2044 32.5004 18.6484 32.5 19.2002 32.5V31.5ZM15.5 28.8C15.5 29.3518 15.4996 29.7957 15.5289 30.1543C15.5587 30.5187 15.6216 30.8388 15.7725 31.135L16.6635 30.681C16.5964 30.5493 16.5503 30.3755 16.5256 30.0729C16.5004 29.7645 16.5 29.3683 16.5 28.8H15.5ZM17.3188 31.3365C17.0367 31.1927 16.8074 30.9633 16.6635 30.681L15.7725 31.135C16.0121 31.6053 16.3943 31.9877 16.8648 32.2275L17.3188 31.3365ZM31.5 28.8C31.5 29.3684 31.4997 29.7645 31.4745 30.073C31.4498 30.3756 31.4038 30.5493 31.3367 30.681L32.2277 31.135C32.3787 30.8388 32.4415 30.5186 32.4712 30.1542C32.5004 29.7957 32.5 29.3518 32.5 28.8H31.5ZM28.8002 32.5C29.352 32.5 29.7958 32.5004 30.1543 32.4711C30.5187 32.4413 30.8387 32.3784 31.1348 32.2275L30.6808 31.3365C30.5491 31.4036 30.3753 31.4497 30.0729 31.4744C29.7645 31.4996 29.3685 31.5 28.8002 31.5V32.5ZM31.3367 30.681C31.193 30.963 30.9633 31.1926 30.6808 31.3365L31.1348 32.2275C31.605 31.9879 31.9879 31.6056 32.2277 31.135L31.3367 30.681ZM32.5 19.2C32.5 18.6483 32.5004 18.2043 32.4712 17.8458C32.4415 17.4814 32.3787 17.1612 32.2277 16.865L31.3367 17.319C31.4038 17.4507 31.4498 17.6245 31.4745 17.9271C31.4997 18.2355 31.5 18.6317 31.5 19.2H32.5ZM28.8002 16.5C29.3685 16.5 29.7646 16.5004 30.0729 16.5256C30.3753 16.5503 30.5491 16.5964 30.6808 16.6635L31.1348 15.7725C30.8387 15.6216 30.5187 15.5587 30.1543 15.5289C29.7958 15.4996 29.352 15.5 28.8002 15.5V16.5ZM32.2277 16.865C31.9879 16.3944 31.605 16.0121 31.1348 15.7725L30.6808 16.6635C30.9632 16.8074 31.193 17.037 31.3367 17.319L32.2277 16.865ZM24 23.5H28V22.5H24V23.5ZM24 20.5H28V19.5H24V20.5ZM20.5 32L20.5 16L19.5 16L19.5 32H20.5Z" fill="currentColor"/>
  </g>
  <g id='like'>
    <svg width="48" height="48" viewBox="0 0 48 48" fill="none" xmlns="http://www.w3.org/2000/svg">
    <path d="M24 20.1944C22 15.5 15 16 15 22C15 28.0001 24 33 24 33C24 33 33 28.0001 33 22C33 16 26 15.5 24 20.1944Z" stroke="currentColor" stroke-linecap="round" stroke-linejoin="round"/>
    </svg>
  </g>
  <g id='setting'>
    <svg width="48" height="48" viewBox="0 0 48 48" fill="none" xmlns="http://www.w3.org/2000/svg">
<path d="M32.35 20.9231L31.9838 20.7194C31.9269 20.6877 31.8984 20.6719 31.871 20.6554C31.5979 20.4918 31.3679 20.2654 31.1999 19.995C31.183 19.9678 31.1664 19.9397 31.1338 19.8833L31.1337 19.883C31.1012 19.8267 31.0848 19.7984 31.0697 19.7701C30.919 19.4888 30.8379 19.1756 30.8331 18.8565C30.8326 18.8277 30.8331 18.7982 30.834 18.7454L30.8343 18.7263L30.8414 18.3093C30.8529 17.6233 30.8586 17.2803 30.7626 16.9728C30.6776 16.7007 30.5357 16.4499 30.3459 16.2372C30.1317 15.9972 29.8348 15.8261 29.2424 15.4847L29.2393 15.4829L28.7455 15.1984C28.1526 14.8567 27.8561 14.686 27.5414 14.6209C27.2629 14.5632 26.9754 14.5655 26.698 14.6278C26.3851 14.698 26.0926 14.8732 25.5086 15.2229L25.5041 15.2256L25.1503 15.4374C25.0943 15.4709 25.066 15.4877 25.038 15.5032C24.7597 15.658 24.4485 15.7441 24.1303 15.7543C24.0982 15.7553 24.0656 15.7553 24.0004 15.7553H23.9995C23.9347 15.7553 23.9025 15.7553 23.8705 15.7543C23.5516 15.744 23.2394 15.6575 22.9607 15.5022C22.9336 15.4871 22.9067 15.4709 22.8546 15.4397L22.8486 15.4361L22.4925 15.2223L22.4899 15.2207C21.9023 14.8679 21.6082 14.6914 21.2938 14.6209C21.0152 14.5583 20.7263 14.5563 20.4468 14.6146C20.1309 14.6806 19.8335 14.8532 19.239 15.1982L18.7513 15.4813C18.1599 15.8245 17.8646 15.9961 17.6512 16.2363C17.4625 16.4487 17.3211 16.699 17.2366 16.9703C17.1412 17.2771 17.1466 17.619 17.1581 18.3027L17.1652 18.7274C17.1663 18.7917 17.167 18.8239 17.1666 18.8555C17.1618 19.1753 17.0804 19.4892 16.9293 19.771C16.9143 19.7989 16.8982 19.8267 16.8661 19.8824C16.8339 19.9381 16.8178 19.9659 16.8011 19.9928C16.6324 20.2647 16.4009 20.4921 16.1261 20.656C16.099 20.6722 16.071 20.6878 16.0148 20.719L15.6532 20.9194L15.6531 20.9194C15.0516 21.2528 14.7509 21.4194 14.5321 21.6568C14.3385 21.8668 14.192 22.1159 14.1027 22.3872C14.0019 22.6935 14.0027 23.0369 14.0043 23.7229L14.0043 23.7256L14.0055 24.2877L14.0056 24.2938C14.0071 24.9729 14.0079 25.3134 14.1087 25.6171C14.1982 25.8866 14.344 26.1339 14.5365 26.3427C14.7538 26.5784 15.0521 26.7443 15.6478 27.0757L15.6498 27.0768L16.0081 27.2761L16.0131 27.2789C16.0708 27.311 16.1005 27.3275 16.1291 27.3448C16.4015 27.5087 16.6304 27.7353 16.7977 28.0056C16.8158 28.0348 16.8331 28.0651 16.8678 28.1257L16.8678 28.1257C16.9021 28.1856 16.9194 28.2155 16.9353 28.2455C17.082 28.5232 17.1612 28.8315 17.1666 29.1455C17.1671 29.1794 17.1666 29.214 17.1654 29.283L17.1586 29.6905L17.1585 29.692C17.147 30.3771 17.1412 30.7198 17.2371 31.0271C17.3221 31.2992 17.4644 31.55 17.6542 31.7627C17.8687 32.0031 18.1656 32.1745 18.7601 32.5171L19.2538 32.8016C19.8467 33.1432 20.1435 33.314 20.4583 33.3791C20.7367 33.4367 21.0242 33.4344 21.3016 33.3721C21.6146 33.3018 21.9072 33.1266 22.4917 32.7766L22.4955 32.7744L22.8493 32.5625C22.9053 32.529 22.9334 32.5123 22.9615 32.4967C23.2398 32.342 23.5508 32.2559 23.869 32.2457C23.9011 32.2446 23.9337 32.2446 23.9989 32.2446C24.0643 32.2446 24.0975 32.2446 24.1296 32.2457C24.4485 32.2559 24.7602 32.3423 25.0389 32.4977C25.067 32.5133 25.0952 32.5302 25.1512 32.5638L25.5073 32.7776L25.508 32.778C26.0969 33.1316 26.3913 33.3083 26.7061 33.379C26.9847 33.4415 27.2731 33.4437 27.5526 33.3853C27.8685 33.3193 28.1661 33.1468 28.7606 32.8017L29.2483 32.5187C29.8397 32.1754 30.1351 32.0038 30.3484 31.7637C30.5372 31.5512 30.6786 31.301 30.7631 31.0296C30.8585 30.7229 30.853 30.381 30.8415 29.6972L30.8343 29.2726L30.834 29.2511C30.8331 29.2007 30.8326 29.1724 30.833 29.1445C30.8378 28.8248 30.9191 28.5108 31.0702 28.229C31.0851 28.2011 31.1012 28.1733 31.1333 28.1178L31.1334 28.1176C31.1656 28.0619 31.1819 28.034 31.1986 28.0071C31.3674 27.7352 31.5986 27.5079 31.8734 27.344C31.8997 27.3283 31.9271 27.3132 31.9797 27.284L31.9852 27.2809L32.3468 27.0806C32.9484 26.7472 33.2489 26.5806 33.4677 26.3431C33.6613 26.1331 33.8076 25.8841 33.8968 25.6128C33.9977 25.3061 33.9973 24.9622 33.9958 24.2744L33.9945 23.7123C33.993 23.0291 33.9921 22.6874 33.891 22.3828C33.8015 22.1133 33.6556 21.866 33.4631 21.6572C33.2455 21.4213 32.947 21.2552 32.35 20.9231Z" stroke="#0B0B0B" stroke-width="1.2" stroke-linecap="round" stroke-linejoin="round"/>
</svg>
  </g>

  <g id='drop'>
    <svg width="24" height="24" viewBox="0 0 24 24" fill="none" xmlns="http://www.w3.org/2000/svg">
    <path d="M16 10L12 14L8 10" stroke="#1D4ED8" stroke-width="2" stroke-linecap="round" stroke-linejoin="round"/>
    </svg>

  </g>
</svg>